<svg id="visual" viewBox="0 0 900 600" width="900" height="600" xmlns="http://www.w3.org/2000/svg" xmlns:xlink="http://www.w3.org/1999/xlink" version="1.1"><rect x="0" y="0" width="900" height="600" fill="#00110c"></rect><path d="M0 401L15 414.5C30 428 60 455 90 458C120 461 150 440 180 432.5C210 425 240 431 270 439.3C300 447.7 330 458.3 360 464.7C390 471 420 473 450 467.5C480 462 510 449 540 450C570 451 600 466 630 468.2C660 470.3 690 459.7 720 446.5C750 433.3 780 417.7 810 417C840 416.3 870 430.7 885 437.8L900 445L900 601L885 601C870 601 840 601 810 601C780 601 750 601 720 601C690 601 660 601 630 601C600 601 570 601 540 601C510 601 480 601 450 601C420 601 390 601 360 601C330 601 300 601 270 601C240 601 210 601 180 601C150 601 120 601 90 601C60 601 30 601 15 601L0 601Z" fill="#008060"></path><path d="M0 504L15 497.5C30 491 60 478 90 470C120 462 150 459 180 464C210 469 240 482 270 486.8C300 491.7 330 488.3 360 485C390 481.7 420 478.3 450 476.7C480 475 510 475 540 476C570 477 600 479 630 485.3C660 491.7 690 502.3 720 500.2C750 498 780 483 810 472.8C840 462.7 870 457.3 885 454.7L900 452L900 601L885 601C870 601 840 601 810 601C780 601 750 601 720 601C690 601 660 601 630 601C600 601 570 601 540 601C510 601 480 601 450 601C420 601 390 601 360 601C330 601 300 601 270 601C240 601 210 601 180 601C150 601 120 601 90 601C60 601 30 601 15 601L0 601Z" fill="#007a5b"></path><path d="M0 486L15 494.7C30 503.3 60 520.7 90 527.7C120 534.7 150 531.3 180 526.7C210 522 240 516 270 511.3C300 506.7 330 503.3 360 507.2C390 511 420 522 450 525.2C480 528.3 510 523.7 540 523C570 522.3 600 525.7 630 520.5C660 515.3 690 501.7 720 499.8C750 498 780 508 810 510.5C840 513 870 508 885 505.5L900 503L900 601L885 601C870 601 840 601 810 601C780 601 750 601 720 601C690 601 660 601 630 601C600 601 570 601 540 601C510 601 480 601 450 601C420 601 390 601 360 601C330 601 300 601 270 601C240 601 210 601 180 601C150 601 120 601 90 601C60 601 30 601 15 601L0 601Z" fill="#007457"></path><path d="M0 531L15 534.5C30 538 60 545 90 546.5C120 548 150 544 180 544.2C210 544.3 240 548.7 270 550.2C300 551.7 330 550.3 360 549C390 547.7 420 546.3 450 545.3C480 544.3 510 543.7 540 546.2C570 548.7 600 554.3 630 552.7C660 551 690 542 720 539.2C750 536.3 780 539.7 810 541.5C840 543.3 870 543.7 885 543.8L900 544L900 601L885 601C870 601 840 601 810 601C780 601 750 601 720 601C690 601 660 601 630 601C600 601 570 601 540 601C510 601 480 601 450 601C420 601 390 601 360 601C330 601 300 601 270 601C240 601 210 601 180 601C150 601 120 601 90 601C60 601 30 601 15 601L0 601Z" fill="#006e52"></path></svg>